# xmcd
#
# Track frame offsets:
#	150
#	11283
#	26558
#	47609
#	69218
#	83993
#	108989
#	135747
#	150796
#	168773
#	182306
#	194808
#	215925
#	233884
#	247913
#	268687
#
# Disc length: 3812 seconds
#
# Revision: 1
# Processed by: cddbd v1.5.2PL0 Copyright (c) Steve Scherf et al.
# Submitted via: audiograbber 1.83.01
#
DISCID=c90ee210
DTITLE=Clannad - pastpresent
DYEAR=1989
DGENRE=Pop
TTITLE0=theme froim harry's game
TTITLE1=closer to your heart
TTITLE2=almost seems
TTITLE3=the hunter
TTITLE4=lady marian
TTITLE5=sirius
TTITLE6=coinleach glas an fhomair
TTITLE7=second nature
TTITLE8=world of difference
TTITLE9=in a lifetime
TTITLE10=robin
TTITLE11=something to believe in
TTITLE12=newgrange
TTITLE13=buachaill an eirne
TTITLE14=white fool
TTITLE15=stepping stone
EXTD=
EXTT0=
EXTT1=
EXTT2=
EXTT3=
EXTT4=
EXTT5=
EXTT6=
EXTT7=
EXTT8=
EXTT9=
EXTT10=
EXTT11=
EXTT12=
EXTT13=
EXTT14=
EXTT15=
PLAYORDER=
